<svg width="1312" height="768" viewBox="0 0 1312 768" fill="none" xmlns="http://www.w3.org/2000/svg">
<g clip-path="url(#clip0_319_37593)">
<rect width="1312" height="768" fill="white"/>
<path d="M130 -38L-870 962" stroke="#FBD5EA" stroke-width="40"/>
<path d="M280 -38L-720 962" stroke="#F2C6DF" stroke-width="40"/>
<path d="M430 -38L-570 962" stroke="#FBD5EA" stroke-width="40"/>
<path d="M580 -38L-420 962" stroke="#F2C6DF" stroke-width="40"/>
<path d="M730 -38L-270 962" stroke="#FBD5EA" stroke-width="40"/>
<path d="M880 -38L-120 962" stroke="#F2C6DF" stroke-width="40"/>
<path d="M1030 -38L30 962" stroke="#FBD5EA" stroke-width="40"/>
<path d="M1180 -38L180 962" stroke="#F2C6DF" stroke-width="40"/>
<path d="M1330 -38L330 962" stroke="#FBD5EA" stroke-width="40"/>
<path d="M1480 -38L480 962" stroke="#F2C6DF" stroke-width="40"/>
<path d="M1630 -38L630 962" stroke="#FBD5EA" stroke-width="40"/>
<path d="M1780 -38L780 962" stroke="#F2C6DF" stroke-width="40"/>
<path d="M1930 -38L930 962" stroke="#FBD5EA" stroke-width="40"/>
<path d="M2080 -38L1080 962" stroke="#F2C6DF" stroke-width="40"/>
</g>
<defs>
<clipPath id="clip0_319_37593">
<rect width="1312" height="768" fill="white"/>
</clipPath>
</defs>
</svg>
