<svg width="168" height="168" viewBox="0 0 168 168" fill="none" xmlns="http://www.w3.org/2000/svg">
<g filter="url(#filter0_d_317_37585)">
<path d="M39.2725 16C39.2257 16.3267 39.2002 16.6604 39.2002 17C39.2002 20.866 42.3342 24 46.2002 24C50.0662 24 53.2002 20.866 53.2002 17C53.2002 16.6604 53.1747 16.3267 53.1279 16H64.4717C64.425 16.3266 64.4004 16.6604 64.4004 17C64.4004 20.866 67.5344 24 71.4004 24C75.2662 23.9998 78.4004 20.8659 78.4004 17C78.4004 16.6604 78.3749 16.3266 78.3281 16H89.6719C89.6251 16.3266 89.5996 16.6604 89.5996 17C89.5996 20.8659 92.7338 23.9998 96.5996 24C100.466 24 103.6 20.866 103.6 17C103.6 16.6604 103.575 16.3266 103.528 16H114.872C114.825 16.3267 114.8 16.6604 114.8 17C114.8 20.866 117.934 24 121.8 24C125.666 24 128.8 20.866 128.8 17C128.8 16.6604 128.774 16.3267 128.728 16H140.072C140.026 16.3267 140 16.6604 140 17C140 20.866 143.134 24 147 24C147.34 24 147.673 23.9735 148 23.9268V35.2715C144.608 35.7567 142 38.6738 142 42.2002C142 45.7265 144.608 48.6416 148 49.127V60.4717C144.608 60.957 142 63.874 142 67.4004C142 70.9266 144.608 73.8418 148 74.3271V85.6719C144.608 86.1571 142 89.0734 142 92.5996C142 96.126 144.608 99.042 148 99.5273V110.872C144.608 111.357 142 114.273 142 117.8C142 121.326 144.608 124.242 148 124.728V136.072C145.975 136.362 144.23 137.517 143.152 139.152C141.517 140.23 140.362 141.975 140.072 144H128.728C128.242 140.608 125.326 138 121.8 138C118.273 138 115.357 140.608 114.872 144H103.528C103.043 140.608 100.126 138 96.5996 138C93.0734 138 90.1571 140.608 89.6719 144H78.3281C77.8429 140.608 74.9266 138 71.4004 138C67.874 138 64.957 140.608 64.4717 144H53.1279C52.6426 140.608 49.7266 138 46.2002 138C42.6738 138 39.7578 140.608 39.2725 144H27.9277C27.9745 143.673 28 143.34 28 143C28 139.134 24.866 136 21 136C20.6604 136 20.3267 136.026 20 136.072V124.728C20.3267 124.774 20.6604 124.8 21 124.8C24.866 124.8 28 121.666 28 117.8C27.9999 113.934 24.8659 110.8 21 110.8C20.6604 110.8 20.3267 110.825 20 110.872V99.5273C20.3267 99.5741 20.6604 99.5996 21 99.5996C24.866 99.5996 28 96.4656 28 92.5996C27.9998 88.7338 24.8659 85.5996 21 85.5996C20.6604 85.5996 20.3266 85.6251 20 85.6719V74.3271C20.3267 74.3739 20.6604 74.4004 21 74.4004C24.8659 74.4004 27.9998 71.2662 28 67.4004C28 63.5344 24.866 60.4004 21 60.4004C20.6604 60.4004 20.3266 60.425 20 60.4717V49.127C20.3267 49.1737 20.6604 49.2002 21 49.2002C24.8659 49.2002 27.9999 46.0661 28 42.2002C28 38.3342 24.866 35.2002 21 35.2002C20.6604 35.2002 20.3266 35.2248 20 35.2715V23.9268C20.3267 23.9735 20.6604 24 21 24C24.866 24 28 20.866 28 17C28 16.6604 27.9745 16.3267 27.9277 16H39.2725Z" fill="#FBD5EA"/>
</g>
<rect x="38" y="34" width="96" height="96" rx="4" fill="white"/>
<path d="M101.895 48C114.103 48 124.001 57.9686 124.001 70.2656C124.001 76.5493 121.415 82.2241 117.259 86.2725L117.304 86.3174L89.5635 114.258C87.618 116.217 84.464 116.217 82.5186 114.258L54.7783 86.3174L54.7822 86.3125C50.602 82.2616 48 76.5698 48 70.2656C48.0002 57.9687 57.897 48.0002 70.1055 48C76.3453 48 81.9806 50.605 86 54.793C90.0194 50.6048 95.6547 48.0001 101.895 48Z" fill="#F5A0D0"/>
<defs>
<filter id="filter0_d_317_37585" x="0" y="0" width="168" height="168" filterUnits="userSpaceOnUse" color-interpolation-filters="sRGB">
<feFlood flood-opacity="0" result="BackgroundImageFix"/>
<feColorMatrix in="SourceAlpha" type="matrix" values="0 0 0 0 0 0 0 0 0 0 0 0 0 0 0 0 0 0 127 0" result="hardAlpha"/>
<feOffset dy="4"/>
<feGaussianBlur stdDeviation="10"/>
<feComposite in2="hardAlpha" operator="out"/>
<feColorMatrix type="matrix" values="0 0 0 0 0 0 0 0 0 0 0 0 0 0 0 0 0 0 0.05 0"/>
<feBlend mode="normal" in2="BackgroundImageFix" result="effect1_dropShadow_317_37585"/>
<feBlend mode="normal" in="SourceGraphic" in2="effect1_dropShadow_317_37585" result="shape"/>
</filter>
</defs>
</svg>
