<svg width="336" height="336" viewBox="0 0 336 336" fill="none" xmlns="http://www.w3.org/2000/svg">
<g filter="url(#filter0_d_115_9476)">
<path d="M78.543 32C78.4495 32.6533 78.4004 33.3209 78.4004 34C78.4004 41.732 84.6684 48 92.4004 48C100.132 47.9998 106.4 41.7319 106.4 34C106.4 33.3209 106.35 32.6533 106.257 32H128.942C128.849 32.6532 128.8 33.3209 128.8 34C128.8 41.7319 135.068 47.9999 142.8 48C150.532 48 156.8 41.732 156.8 34C156.8 33.3209 156.751 32.6533 156.657 32H179.343C179.249 32.6532 179.2 33.3209 179.2 34C179.2 41.732 185.468 48 193.2 48C200.932 47.9999 207.2 41.7319 207.2 34C207.2 33.3209 207.151 32.6532 207.058 32H229.743C229.65 32.6533 229.6 33.3209 229.6 34C229.6 41.7319 235.868 47.9998 243.6 48C251.332 48 257.6 41.732 257.6 34C257.6 33.3209 257.55 32.6533 257.457 32H280.143C280.049 32.6532 280 33.3209 280 34C280 41.732 286.268 48 294 48C294.679 48 295.347 47.9499 296 47.8564V70.543C289.215 71.5135 284 77.3475 284 84.4004C284 91.453 289.216 97.2853 296 98.2559V120.942C289.216 121.913 284 127.747 284 134.8C284 141.853 289.216 147.686 296 148.656V171.343C289.215 172.313 284 178.147 284 185.2C284 192.253 289.216 198.086 296 199.057V221.743C289.216 222.714 284 228.547 284 235.6C284 242.652 289.216 248.485 296 249.456V272.143C291.95 272.722 288.46 275.034 286.304 278.304C283.034 280.46 280.722 283.95 280.143 288H257.457C256.486 281.215 250.652 276 243.6 276C236.547 276 230.714 281.216 229.743 288H207.058C206.087 281.216 200.253 276 193.2 276C186.147 276 180.313 281.215 179.343 288H156.657C155.687 281.215 149.853 276 142.8 276C135.747 276 129.913 281.216 128.942 288H106.257C105.286 281.216 99.4531 276 92.4004 276C85.3475 276 79.5135 281.215 78.543 288H55.8574C55.9509 287.347 56 286.679 56 286C56 278.268 49.732 272 42 272C41.3209 272 40.6532 272.049 40 272.143V249.456C40.6533 249.55 41.3209 249.6 42 249.6C49.732 249.6 56 243.332 56 235.6C55.9998 227.868 49.7319 221.6 42 221.6C41.3209 221.6 40.6533 221.65 40 221.743V199.057C40.6533 199.15 41.3209 199.2 42 199.2C49.7319 199.2 55.9999 192.932 56 185.2C56 177.468 49.732 171.2 42 171.2C41.3209 171.2 40.6532 171.249 40 171.343V148.656C40.6533 148.75 41.3209 148.8 42 148.8C49.732 148.8 56 142.532 56 134.8C55.9999 127.068 49.7319 120.8 42 120.8C41.3209 120.8 40.6532 120.849 40 120.942V98.2559C40.6533 98.3493 41.3208 98.4004 42 98.4004C49.7319 98.4004 55.9998 92.1322 56 84.4004C56 76.6684 49.732 70.4004 42 70.4004C41.3209 70.4004 40.6533 70.4495 40 70.543V47.8564C40.6533 47.9499 41.3209 48 42 48C49.732 48 56 41.732 56 34C56 33.3209 55.9509 32.6532 55.8574 32H78.543Z" fill="#EAD4E0"/>
</g>
<rect x="76" y="68" width="192" height="192" rx="8" fill="white"/>
<path d="M203.79 96C228.207 96.0002 248.001 115.938 248.001 140.532C248.001 153.099 242.831 164.448 234.519 172.545L234.606 172.634L179.128 228.516C175.237 232.435 168.927 232.435 165.036 228.516L109.558 172.634L109.564 172.626C101.204 164.524 96.0001 153.141 96 140.532C96 115.938 115.795 96 140.212 96C152.691 96.0001 163.961 101.21 172 109.586C180.039 101.21 191.31 96 203.79 96Z" fill="#F2C6DF"/>
<defs>
<filter id="filter0_d_115_9476" x="0" y="0" width="336" height="336" filterUnits="userSpaceOnUse" color-interpolation-filters="sRGB">
<feFlood flood-opacity="0" result="BackgroundImageFix"/>
<feColorMatrix in="SourceAlpha" type="matrix" values="0 0 0 0 0 0 0 0 0 0 0 0 0 0 0 0 0 0 127 0" result="hardAlpha"/>
<feOffset dy="8"/>
<feGaussianBlur stdDeviation="20"/>
<feComposite in2="hardAlpha" operator="out"/>
<feColorMatrix type="matrix" values="0 0 0 0 0 0 0 0 0 0 0 0 0 0 0 0 0 0 0.05 0"/>
<feBlend mode="normal" in2="BackgroundImageFix" result="effect1_dropShadow_115_9476"/>
<feBlend mode="normal" in="SourceGraphic" in2="effect1_dropShadow_115_9476" result="shape"/>
</filter>
</defs>
</svg>
