<svg width="1264" height="336" viewBox="0 0 1264 336" fill="none" xmlns="http://www.w3.org/2000/svg">
<g filter="url(#filter0_d_114_29110)">
<path d="M78.543 32C78.4495 32.6533 78.4004 33.3209 78.4004 34C78.4004 41.732 84.6684 48 92.4004 48C100.132 47.9998 106.4 41.7319 106.4 34C106.4 33.3209 106.35 32.6533 106.257 32H128.942C128.849 32.6532 128.8 33.3209 128.8 34C128.8 41.7319 135.068 47.9999 142.8 48C150.532 48 156.8 41.732 156.8 34C156.8 33.3209 156.751 32.6533 156.657 32H179.343C179.249 32.6532 179.2 33.3209 179.2 34C179.2 41.732 185.468 48 193.2 48C200.932 47.9999 207.2 41.7319 207.2 34C207.2 33.3209 207.151 32.6532 207.058 32H229.743C229.65 32.6533 229.6 33.3209 229.6 34C229.6 41.7319 235.868 47.9998 243.6 48C251.332 48 257.6 41.732 257.6 34C257.6 33.3209 257.55 32.6533 257.457 32H280.143C280.049 32.6532 280 33.3209 280 34C280 41.732 286.268 48 294 48C294.679 48 295.347 47.9499 296 47.8564V70.543C289.215 71.5135 284 77.3475 284 84.4004C284 91.453 289.216 97.2853 296 98.2559V120.942C289.216 121.913 284 127.747 284 134.8C284 141.853 289.216 147.686 296 148.656V171.343C289.215 172.313 284 178.147 284 185.2C284 192.253 289.216 198.086 296 199.057V221.743C289.216 222.714 284 228.547 284 235.6C284 242.652 289.216 248.485 296 249.456V272.143C291.95 272.722 288.46 275.034 286.304 278.304C283.034 280.46 280.722 283.95 280.143 288H257.457C256.486 281.215 250.652 276 243.6 276C236.547 276 230.714 281.216 229.743 288H207.058C206.087 281.216 200.253 276 193.2 276C186.147 276 180.313 281.215 179.343 288H156.657C155.687 281.215 149.853 276 142.8 276C135.747 276 129.913 281.216 128.942 288H106.257C105.286 281.216 99.4531 276 92.4004 276C85.3475 276 79.5135 281.215 78.543 288H55.8574C55.9509 287.347 56 286.679 56 286C56 278.268 49.732 272 42 272C41.3209 272 40.6532 272.049 40 272.143V249.456C40.6533 249.55 41.3209 249.6 42 249.6C49.732 249.6 56 243.332 56 235.6C55.9998 227.868 49.7319 221.6 42 221.6C41.3209 221.6 40.6533 221.65 40 221.743V199.057C40.6533 199.15 41.3209 199.2 42 199.2C49.7319 199.2 55.9999 192.932 56 185.2C56 177.468 49.732 171.2 42 171.2C41.3209 171.2 40.6532 171.249 40 171.343V148.656C40.6533 148.75 41.3209 148.8 42 148.8C49.732 148.8 56 142.532 56 134.8C55.9999 127.068 49.7319 120.8 42 120.8C41.3209 120.8 40.6532 120.849 40 120.942V98.2559C40.6533 98.3493 41.3208 98.4004 42 98.4004C49.7319 98.4004 55.9998 92.1322 56 84.4004C56 76.6684 49.732 70.4004 42 70.4004C41.3209 70.4004 40.6533 70.4495 40 70.543V47.8564C40.6533 47.9499 41.3209 48 42 48C49.732 48 56 41.732 56 34C56 33.3209 55.9509 32.6532 55.8574 32H78.543Z" fill="#EAD4E0"/>
</g>
<rect x="76" y="68" width="192" height="192" rx="8" fill="white"/>
<path d="M204 96C228.301 96 248 115.699 248 140C248 152.666 242.646 164.079 234.08 172.107L234.603 172.634L179.124 228.516C175.233 232.435 168.923 232.435 165.032 228.516L109.554 172.634L110.591 171.589C101.594 163.592 96 152.395 96 140C96 115.699 117.49 96 144 96C155.961 96 166.899 100.012 175.304 106.646C183.008 100.011 193.035 96 204 96Z" fill="#F2C6DF"/>
<path d="M407.936 222V87.6H455.36C464.576 87.6 472.704 89.456 479.744 93.168C486.784 96.88 492.288 102.064 496.256 108.72C500.224 115.248 502.208 122.864 502.208 131.568C502.208 140.016 500.352 147.568 496.64 154.224C492.928 160.88 487.744 166.128 481.088 169.968C474.56 173.68 466.944 175.536 458.24 175.536H430.208V222H407.936ZM430.208 154.992H457.856C464.256 154.992 469.504 152.816 473.6 148.464C477.696 144.112 479.744 138.48 479.744 131.568C479.744 124.528 477.44 118.832 472.832 114.48C468.224 110.128 462.272 107.952 454.976 107.952H430.208V154.992ZM560.189 224.304C550.589 224.304 542.013 222.192 534.461 217.968C527.037 213.616 521.213 207.664 516.989 200.112C512.765 192.56 510.653 183.856 510.653 174C510.653 164.144 512.701 155.44 516.797 147.888C521.021 140.336 526.845 134.448 534.269 130.224C541.693 125.872 550.205 123.696 559.805 123.696C569.405 123.696 577.917 125.872 585.341 130.224C592.765 134.448 598.525 140.336 602.621 147.888C606.845 155.44 608.957 164.144 608.957 174C608.957 183.856 606.909 192.56 602.813 200.112C598.717 207.664 592.957 213.616 585.533 217.968C578.109 222.192 569.661 224.304 560.189 224.304ZM560.189 204.528C565.437 204.528 570.109 203.248 574.205 200.688C578.301 198 581.501 194.416 583.805 189.936C586.109 185.328 587.261 180.016 587.261 174C587.261 167.984 586.045 162.736 583.613 158.256C581.309 153.648 578.109 150.064 574.013 147.504C569.917 144.816 565.181 143.472 559.805 143.472C554.429 143.472 549.693 144.752 545.597 147.312C541.501 149.872 538.301 153.456 535.997 158.064C533.693 162.672 532.541 167.984 532.541 174C532.541 180.016 533.693 185.328 535.997 189.936C538.429 194.416 541.693 198 545.789 200.688C550.013 203.248 554.813 204.528 560.189 204.528ZM662.536 224.304C656.136 224.304 650.248 223.344 644.872 221.424C639.496 219.504 634.888 216.816 631.048 213.36C627.208 209.776 624.264 205.616 622.216 200.88L640.84 192.624C642.76 196.208 645.576 199.216 649.288 201.648C653.128 204.08 657.352 205.296 661.96 205.296C666.952 205.296 670.92 204.464 673.864 202.8C676.936 201.008 678.472 198.576 678.472 195.504C678.472 192.56 677.32 190.32 675.016 188.784C672.712 187.12 669.448 185.776 665.224 184.752L656.2 182.256C647.112 179.952 640.008 176.304 634.888 171.312C629.768 166.192 627.208 160.368 627.208 153.84C627.208 144.24 630.28 136.816 636.424 131.568C642.696 126.32 651.656 123.696 663.304 123.696C669.192 123.696 674.568 124.592 679.432 126.384C684.424 128.048 688.712 130.48 692.296 133.68C695.88 136.752 698.376 140.4 699.784 144.624L681.928 152.688C680.648 149.488 678.216 147.056 674.632 145.392C671.048 143.6 667.08 142.704 662.728 142.704C658.376 142.704 654.984 143.664 652.552 145.584C650.12 147.376 648.904 149.936 648.904 153.264C648.904 155.184 649.992 156.976 652.168 158.64C654.344 160.176 657.48 161.456 661.576 162.48L672.904 165.168C679.176 166.704 684.296 169.136 688.264 172.464C692.232 175.664 695.176 179.312 697.096 183.408C699.016 187.376 699.976 191.408 699.976 195.504C699.976 201.264 698.312 206.32 694.984 210.672C691.784 215.024 687.368 218.416 681.736 220.848C676.104 223.152 669.704 224.304 662.536 224.304ZM755.237 224.304C745.125 224.304 737.381 221.808 732.005 216.816C726.757 211.696 724.133 204.4 724.133 194.928V96.048H745.445V190.896C745.445 195.376 746.469 198.768 748.517 201.072C750.693 203.376 753.829 204.528 757.925 204.528C759.205 204.528 760.613 204.272 762.149 203.76C763.685 203.248 765.413 202.288 767.333 200.88L775.205 217.2C771.877 219.504 768.549 221.232 765.221 222.384C761.893 223.664 758.565 224.304 755.237 224.304ZM708.197 144.432V126H771.365V144.432H708.197ZM836.02 224.304C826.164 224.304 817.46 222.192 809.908 217.968C802.356 213.616 796.404 207.664 792.052 200.112C787.828 192.56 785.716 183.856 785.716 174C785.716 164.144 787.828 155.44 792.052 147.888C796.404 140.336 802.292 134.448 809.716 130.224C817.268 125.872 825.908 123.696 835.635 123.696C845.108 123.696 853.684 126 861.364 130.608C869.044 135.088 874.74 141.552 878.452 150L858.484 157.68C856.436 153.456 853.3 150.064 849.076 147.504C844.852 144.944 840.052 143.664 834.676 143.664C829.428 143.664 824.756 145.008 820.66 147.696C816.564 150.256 813.364 153.84 811.06 158.448C808.756 162.928 807.604 168.112 807.604 174C807.604 179.888 808.756 185.136 811.06 189.744C813.492 194.224 816.756 197.808 820.852 200.496C825.076 203.056 829.812 204.336 835.06 204.336C840.436 204.336 845.236 202.992 849.46 200.304C853.684 197.488 856.82 193.712 858.868 188.976L878.836 196.656C875.124 205.36 869.428 212.144 861.748 217.008C854.196 221.872 845.62 224.304 836.02 224.304ZM954.089 222L953.129 203.952V172.656C953.129 166.128 952.425 160.688 951.017 156.336C949.737 151.856 947.561 148.464 944.489 146.16C941.545 143.728 937.577 142.512 932.585 142.512C927.977 142.512 923.945 143.472 920.489 145.392C917.033 147.312 914.089 150.32 911.657 154.416L892.841 147.504C894.889 143.28 897.577 139.376 900.905 135.792C904.361 132.08 908.649 129.136 913.769 126.96C919.017 124.784 925.289 123.696 932.585 123.696C941.929 123.696 949.737 125.552 956.009 129.264C962.281 132.848 966.889 138.032 969.833 144.816C972.905 151.6 974.441 159.792 974.441 169.392L973.865 222H954.089ZM926.441 224.304C914.921 224.304 905.961 221.744 899.561 216.624C893.289 211.504 890.153 204.272 890.153 194.928C890.153 184.944 893.481 177.328 900.137 172.08C906.921 166.832 916.329 164.208 928.361 164.208H954.089V180.72H935.273C926.697 180.72 920.681 181.936 917.225 184.368C913.769 186.672 912.041 190 912.041 194.352C912.041 198.064 913.513 201.008 916.457 203.184C919.529 205.232 923.753 206.256 929.129 206.256C933.993 206.256 938.217 205.168 941.801 202.992C945.385 200.816 948.137 197.936 950.057 194.352C952.105 190.768 953.129 186.736 953.129 182.256H959.465C959.465 195.312 956.841 205.616 951.593 213.168C946.345 220.592 937.961 224.304 926.441 224.304ZM1010.42 170.928C1010.42 160.56 1012.41 152.048 1016.38 145.392C1020.34 138.736 1025.46 133.808 1031.74 130.608C1038.14 127.28 1044.79 125.616 1051.7 125.616V146.16C1045.82 146.16 1040.25 146.992 1035 148.656C1029.88 150.192 1025.72 152.752 1022.52 156.336C1019.32 159.92 1017.72 164.656 1017.72 170.544L1010.42 170.928ZM996.217 222V126H1017.72V222H996.217ZM1135.28 222L1134.32 204.144V87.6H1155.63V222H1135.28ZM1103.98 224.304C1095.28 224.304 1087.66 222.256 1081.13 218.16C1074.73 213.936 1069.68 208.048 1065.97 200.496C1062.38 192.944 1060.59 184.112 1060.59 174C1060.59 163.76 1062.38 154.928 1065.97 147.504C1069.68 139.952 1074.73 134.128 1081.13 130.032C1087.66 125.808 1095.28 123.696 1103.98 123.696C1112.05 123.696 1118.96 125.808 1124.72 130.032C1130.61 134.128 1135.09 139.952 1138.16 147.504C1141.23 154.928 1142.77 163.76 1142.77 174C1142.77 184.112 1141.23 192.944 1138.16 200.496C1135.09 208.048 1130.61 213.936 1124.72 218.16C1118.96 222.256 1112.05 224.304 1103.98 224.304ZM1109.36 204.72C1114.22 204.72 1118.51 203.44 1122.22 200.88C1126.06 198.192 1129.01 194.544 1131.05 189.936C1133.23 185.328 1134.32 180.016 1134.32 174C1134.32 167.984 1133.23 162.672 1131.05 158.064C1129.01 153.456 1126.06 149.872 1122.22 147.312C1118.51 144.752 1114.16 143.472 1109.17 143.472C1104.05 143.472 1099.5 144.752 1095.53 147.312C1091.57 149.872 1088.43 153.456 1086.13 158.064C1083.95 162.672 1082.8 167.984 1082.67 174C1082.8 180.016 1083.95 185.328 1086.13 189.936C1088.43 194.544 1091.57 198.192 1095.53 200.88C1099.63 203.44 1104.24 204.72 1109.36 204.72ZM1214.35 224.304C1207.95 224.304 1202.06 223.344 1196.68 221.424C1191.31 219.504 1186.7 216.816 1182.86 213.36C1179.02 209.776 1176.08 205.616 1174.03 200.88L1192.65 192.624C1194.57 196.208 1197.39 199.216 1201.1 201.648C1204.94 204.08 1209.16 205.296 1213.77 205.296C1218.76 205.296 1222.73 204.464 1225.68 202.8C1228.75 201.008 1230.28 198.576 1230.28 195.504C1230.28 192.56 1229.13 190.32 1226.83 188.784C1224.52 187.12 1221.26 185.776 1217.04 184.752L1208.01 182.256C1198.92 179.952 1191.82 176.304 1186.7 171.312C1181.58 166.192 1179.02 160.368 1179.02 153.84C1179.02 144.24 1182.09 136.816 1188.24 131.568C1194.51 126.32 1203.47 123.696 1215.12 123.696C1221 123.696 1226.38 124.592 1231.24 126.384C1236.24 128.048 1240.52 130.48 1244.11 133.68C1247.69 136.752 1250.19 140.4 1251.6 144.624L1233.74 152.688C1232.46 149.488 1230.03 147.056 1226.44 145.392C1222.86 143.6 1218.89 142.704 1214.54 142.704C1210.19 142.704 1206.8 143.664 1204.36 145.584C1201.93 147.376 1200.72 149.936 1200.72 153.264C1200.72 155.184 1201.8 156.976 1203.98 158.64C1206.16 160.176 1209.29 161.456 1213.39 162.48L1224.72 165.168C1230.99 166.704 1236.11 169.136 1240.08 172.464C1244.04 175.664 1246.99 179.312 1248.91 183.408C1250.83 187.376 1251.79 191.408 1251.79 195.504C1251.79 201.264 1250.12 206.32 1246.8 210.672C1243.6 215.024 1239.18 218.416 1233.55 220.848C1227.92 223.152 1221.52 224.304 1214.35 224.304Z" fill="#4C4C4C"/>
<defs>
<filter id="filter0_d_114_29110" x="0" y="0" width="336" height="336" filterUnits="userSpaceOnUse" color-interpolation-filters="sRGB">
<feFlood flood-opacity="0" result="BackgroundImageFix"/>
<feColorMatrix in="SourceAlpha" type="matrix" values="0 0 0 0 0 0 0 0 0 0 0 0 0 0 0 0 0 0 127 0" result="hardAlpha"/>
<feOffset dy="8"/>
<feGaussianBlur stdDeviation="20"/>
<feComposite in2="hardAlpha" operator="out"/>
<feColorMatrix type="matrix" values="0 0 0 0 0 0 0 0 0 0 0 0 0 0 0 0 0 0 0.05 0"/>
<feBlend mode="normal" in2="BackgroundImageFix" result="effect1_dropShadow_114_29110"/>
<feBlend mode="normal" in="SourceGraphic" in2="effect1_dropShadow_114_29110" result="shape"/>
</filter>
</defs>
</svg>
