<svg width="316" height="84" viewBox="0 0 316 84" fill="none" xmlns="http://www.w3.org/2000/svg">
<g filter="url(#filter0_d_115_9516)">
<path d="M19.6367 8C19.6133 8.16336 19.5996 8.33018 19.5996 8.5C19.5996 10.4329 21.1668 11.9998 23.0996 12C25.0326 12 26.5996 10.433 26.5996 8.5C26.5996 8.33019 26.5868 8.16335 26.5635 8H32.2363C32.213 8.16334 32.2002 8.3302 32.2002 8.5C32.2002 10.433 33.7672 12 35.7002 12C37.6331 11.9999 39.2002 10.4329 39.2002 8.5C39.2002 8.33022 39.1874 8.16332 39.1641 8H44.8359C44.8126 8.16332 44.7998 8.33022 44.7998 8.5C44.7998 10.4329 46.3669 11.9999 48.2998 12C50.2328 12 51.7998 10.433 51.7998 8.5C51.7998 8.3302 51.787 8.16334 51.7637 8H57.4365C57.4132 8.16335 57.4004 8.33019 57.4004 8.5C57.4004 10.433 58.9674 12 60.9004 12C62.8332 11.9998 64.4004 10.4329 64.4004 8.5C64.4004 8.33018 64.3867 8.16336 64.3633 8H70.0361C70.0128 8.16333 70 8.33021 70 8.5C70 10.433 71.567 12 73.5 12C73.6698 12 73.8367 11.9872 74 11.9639V17.6357C72.304 17.8784 71.0002 19.3366 71 21.0996C71 22.8628 72.3039 24.3208 74 24.5635V30.2354C72.3038 30.478 71 31.937 71 33.7002C71.0001 35.4633 72.3039 36.9214 74 37.1641V42.835C72.3039 43.0775 71.0001 44.5366 71 46.2998C71 48.063 72.3039 49.521 74 49.7637V55.4355C72.3039 55.6782 71 57.1372 71 58.9004C71.0002 60.6634 72.3041 62.1206 74 62.3633V68.0352C72.9875 68.18 72.1152 68.7586 71.5762 69.5762C70.7586 70.1152 70.181 70.9876 70.0361 72H64.3633C64.1206 70.3041 62.6634 69.0002 60.9004 69C59.1372 69 57.6792 70.3039 57.4365 72H51.7637C51.521 70.3039 50.063 69 48.2998 69C46.5367 69.0001 45.0786 70.304 44.8359 72H39.1641C38.9214 70.3039 37.4633 69.0001 35.7002 69C33.937 69 32.479 70.3039 32.2363 72H26.5635C26.3208 70.3039 24.8628 69 23.0996 69C21.3366 69.0002 19.8794 70.3041 19.6367 72H13.9639C13.9872 71.8367 14 71.6698 14 71.5C14 69.567 12.433 68 10.5 68C10.3303 68 10.1633 68.0118 10 68.0352V62.3633C10.1634 62.3867 10.3302 62.4004 10.5 62.4004C12.4329 62.4004 13.9998 60.8332 14 58.9004C14 56.9674 12.433 55.4004 10.5 55.4004C10.3302 55.4004 10.1633 55.4122 10 55.4355V49.7637C10.1633 49.787 10.3302 49.7998 10.5 49.7998C12.433 49.7998 14 48.2328 14 46.2998C13.9999 44.3669 12.4329 42.7998 10.5 42.7998C10.3303 42.7998 10.1633 42.8116 10 42.835V37.1641C10.1633 37.1874 10.3302 37.2002 10.5 37.2002C12.4329 37.2002 13.9999 35.6331 14 33.7002C14 31.7672 12.433 30.2002 10.5 30.2002C10.3302 30.2002 10.1633 30.212 10 30.2354V24.5635C10.1633 24.5868 10.3302 24.5996 10.5 24.5996C12.433 24.5996 14 23.0326 14 21.0996C13.9998 19.1668 12.4329 17.5996 10.5 17.5996C10.3302 17.5996 10.1633 17.6124 10 17.6357V11.9639C10.1633 11.9872 10.3302 12 10.5 12C12.433 12 14 10.433 14 8.5C14 8.33021 13.9872 8.16333 13.9639 8H19.6367Z" fill="#EAD4E0"/>
</g>
<rect x="19" y="17" width="48" height="48" rx="2" fill="white"/>
<path d="M51 24C57.0751 24 62 28.9249 62 35C62 38.1665 60.66 41.0184 58.5186 43.0254L58.6504 43.1582L44.7812 57.1289C43.8085 58.1087 42.2306 58.1087 41.2578 57.1289L27.3887 43.1582L27.6484 42.8955C25.3994 40.8962 24 38.0987 24 35C24 28.9249 29.3726 24 36 24C38.9907 24 41.724 25.0052 43.8252 26.6641C45.7515 25.0046 48.258 24 51 24Z" fill="#F2C6DF"/>
<path d="M101.984 56V22.4H113.84C116.144 22.4 118.176 22.864 119.936 23.792C121.696 24.72 123.072 26.016 124.064 27.68C125.056 29.312 125.552 31.216 125.552 33.392C125.552 35.504 125.088 37.392 124.16 39.056C123.232 40.72 121.936 42.032 120.272 42.992C118.64 43.92 116.736 44.384 114.56 44.384H107.552V56H101.984ZM107.552 39.248H114.464C116.064 39.248 117.376 38.704 118.4 37.616C119.424 36.528 119.936 35.12 119.936 33.392C119.936 31.632 119.36 30.208 118.208 29.12C117.056 28.032 115.568 27.488 113.744 27.488H107.552V39.248ZM140.047 56.576C137.647 56.576 135.503 56.048 133.615 54.992C131.759 53.904 130.303 52.416 129.247 50.528C128.191 48.64 127.663 46.464 127.663 44C127.663 41.536 128.175 39.36 129.199 37.472C130.255 35.584 131.711 34.112 133.567 33.056C135.423 31.968 137.551 31.424 139.951 31.424C142.351 31.424 144.479 31.968 146.335 33.056C148.191 34.112 149.631 35.584 150.655 37.472C151.711 39.36 152.239 41.536 152.239 44C152.239 46.464 151.727 48.64 150.703 50.528C149.679 52.416 148.239 53.904 146.383 54.992C144.527 56.048 142.415 56.576 140.047 56.576ZM140.047 51.632C141.359 51.632 142.527 51.312 143.551 50.672C144.575 50 145.375 49.104 145.951 47.984C146.527 46.832 146.815 45.504 146.815 44C146.815 42.496 146.511 41.184 145.903 40.064C145.327 38.912 144.527 38.016 143.503 37.376C142.479 36.704 141.295 36.368 139.951 36.368C138.607 36.368 137.423 36.688 136.399 37.328C135.375 37.968 134.575 38.864 133.999 40.016C133.423 41.168 133.135 42.496 133.135 44C133.135 45.504 133.423 46.832 133.999 47.984C134.607 49.104 135.423 50 136.447 50.672C137.503 51.312 138.703 51.632 140.047 51.632ZM165.634 56.576C164.034 56.576 162.562 56.336 161.218 55.856C159.874 55.376 158.722 54.704 157.762 53.84C156.802 52.944 156.066 51.904 155.554 50.72L160.21 48.656C160.69 49.552 161.394 50.304 162.322 50.912C163.282 51.52 164.338 51.824 165.49 51.824C166.738 51.824 167.73 51.616 168.466 51.2C169.234 50.752 169.618 50.144 169.618 49.376C169.618 48.64 169.33 48.08 168.754 47.696C168.178 47.28 167.362 46.944 166.306 46.688L164.05 46.064C161.778 45.488 160.002 44.576 158.722 43.328C157.442 42.048 156.802 40.592 156.802 38.96C156.802 36.56 157.57 34.704 159.106 33.392C160.674 32.08 162.914 31.424 165.826 31.424C167.298 31.424 168.642 31.648 169.858 32.096C171.106 32.512 172.178 33.12 173.074 33.92C173.97 34.688 174.594 35.6 174.946 36.656L170.482 38.672C170.162 37.872 169.554 37.264 168.658 36.848C167.762 36.4 166.77 36.176 165.682 36.176C164.594 36.176 163.746 36.416 163.138 36.896C162.53 37.344 162.226 37.984 162.226 38.816C162.226 39.296 162.498 39.744 163.042 40.16C163.586 40.544 164.37 40.864 165.394 41.12L168.226 41.792C169.794 42.176 171.074 42.784 172.066 43.616C173.058 44.416 173.794 45.328 174.274 46.352C174.754 47.344 174.994 48.352 174.994 49.376C174.994 50.816 174.578 52.08 173.746 53.168C172.946 54.256 171.842 55.104 170.434 55.712C169.026 56.288 167.426 56.576 165.634 56.576ZM188.809 56.576C186.281 56.576 184.345 55.952 183.001 54.704C181.689 53.424 181.033 51.6 181.033 49.232V24.512H186.361V48.224C186.361 49.344 186.617 50.192 187.129 50.768C187.673 51.344 188.457 51.632 189.481 51.632C189.801 51.632 190.153 51.568 190.537 51.44C190.921 51.312 191.353 51.072 191.833 50.72L193.801 54.8C192.969 55.376 192.137 55.808 191.305 56.096C190.473 56.416 189.641 56.576 188.809 56.576ZM177.049 36.608V32H192.841V36.608H177.049ZM209.005 56.576C206.541 56.576 204.365 56.048 202.477 54.992C200.589 53.904 199.101 52.416 198.013 50.528C196.957 48.64 196.429 46.464 196.429 44C196.429 41.536 196.957 39.36 198.013 37.472C199.101 35.584 200.573 34.112 202.429 33.056C204.317 31.968 206.477 31.424 208.909 31.424C211.277 31.424 213.421 32 215.341 33.152C217.261 34.272 218.685 35.888 219.613 38L214.621 39.92C214.109 38.864 213.325 38.016 212.269 37.376C211.213 36.736 210.013 36.416 208.669 36.416C207.357 36.416 206.189 36.752 205.165 37.424C204.141 38.064 203.341 38.96 202.765 40.112C202.189 41.232 201.901 42.528 201.901 44C201.901 45.472 202.189 46.784 202.765 47.936C203.373 49.056 204.189 49.952 205.213 50.624C206.269 51.264 207.453 51.584 208.765 51.584C210.109 51.584 211.309 51.248 212.365 50.576C213.421 49.872 214.205 48.928 214.717 47.744L219.709 49.664C218.781 51.84 217.357 53.536 215.437 54.752C213.549 55.968 211.405 56.576 209.005 56.576ZM238.522 56L238.282 51.488V43.664C238.282 42.032 238.106 40.672 237.754 39.584C237.434 38.464 236.89 37.616 236.122 37.04C235.386 36.432 234.394 36.128 233.146 36.128C231.994 36.128 230.986 36.368 230.122 36.848C229.258 37.328 228.522 38.08 227.914 39.104L223.21 37.376C223.722 36.32 224.394 35.344 225.226 34.448C226.09 33.52 227.162 32.784 228.442 32.24C229.754 31.696 231.322 31.424 233.146 31.424C235.482 31.424 237.434 31.888 239.002 32.816C240.57 33.712 241.722 35.008 242.458 36.704C243.226 38.4 243.61 40.448 243.61 42.848L243.466 56H238.522ZM231.61 56.576C228.73 56.576 226.49 55.936 224.89 54.656C223.322 53.376 222.538 51.568 222.538 49.232C222.538 46.736 223.37 44.832 225.034 43.52C226.73 42.208 229.082 41.552 232.09 41.552H238.522V45.68H233.818C231.674 45.68 230.17 45.984 229.306 46.592C228.442 47.168 228.01 48 228.01 49.088C228.01 50.016 228.378 50.752 229.114 51.296C229.882 51.808 230.938 52.064 232.282 52.064C233.498 52.064 234.554 51.792 235.45 51.248C236.346 50.704 237.034 49.984 237.514 49.088C238.026 48.192 238.282 47.184 238.282 46.064H239.866C239.866 49.328 239.21 51.904 237.898 53.792C236.586 55.648 234.49 56.576 231.61 56.576ZM252.606 43.232C252.606 40.64 253.102 38.512 254.094 36.848C255.086 35.184 256.366 33.952 257.934 33.152C259.534 32.32 261.198 31.904 262.926 31.904V37.04C261.454 37.04 260.062 37.248 258.75 37.664C257.47 38.048 256.43 38.688 255.63 39.584C254.83 40.48 254.43 41.664 254.43 43.136L252.606 43.232ZM249.054 56V32H254.43V56H249.054ZM283.82 56L283.58 51.536V22.4H288.908V56H283.82ZM275.996 56.576C273.82 56.576 271.916 56.064 270.284 55.04C268.684 53.984 267.42 52.512 266.492 50.624C265.596 48.736 265.148 46.528 265.148 44C265.148 41.44 265.596 39.232 266.492 37.376C267.42 35.488 268.684 34.032 270.284 33.008C271.916 31.952 273.82 31.424 275.996 31.424C278.012 31.424 279.74 31.952 281.18 33.008C282.652 34.032 283.772 35.488 284.54 37.376C285.308 39.232 285.692 41.44 285.692 44C285.692 46.528 285.308 48.736 284.54 50.624C283.772 52.512 282.652 53.984 281.18 55.04C279.74 56.064 278.012 56.576 275.996 56.576ZM277.34 51.68C278.556 51.68 279.628 51.36 280.556 50.72C281.516 50.048 282.252 49.136 282.764 47.984C283.308 46.832 283.58 45.504 283.58 44C283.58 42.496 283.308 41.168 282.764 40.016C282.252 38.864 281.516 37.968 280.556 37.328C279.628 36.688 278.54 36.368 277.292 36.368C276.012 36.368 274.876 36.688 273.884 37.328C272.892 37.968 272.108 38.864 271.532 40.016C270.988 41.168 270.7 42.496 270.668 44C270.7 45.504 270.988 46.832 271.532 47.984C272.108 49.136 272.892 50.048 273.884 50.72C274.908 51.36 276.06 51.68 277.34 51.68ZM303.587 56.576C301.987 56.576 300.515 56.336 299.171 55.856C297.827 55.376 296.675 54.704 295.715 53.84C294.755 52.944 294.019 51.904 293.507 50.72L298.163 48.656C298.643 49.552 299.347 50.304 300.275 50.912C301.235 51.52 302.291 51.824 303.443 51.824C304.691 51.824 305.683 51.616 306.419 51.2C307.187 50.752 307.571 50.144 307.571 49.376C307.571 48.64 307.283 48.08 306.707 47.696C306.131 47.28 305.315 46.944 304.259 46.688L302.003 46.064C299.731 45.488 297.955 44.576 296.675 43.328C295.395 42.048 294.755 40.592 294.755 38.96C294.755 36.56 295.523 34.704 297.059 33.392C298.627 32.08 300.867 31.424 303.779 31.424C305.251 31.424 306.595 31.648 307.811 32.096C309.059 32.512 310.131 33.12 311.027 33.92C311.923 34.688 312.547 35.6 312.899 36.656L308.435 38.672C308.115 37.872 307.507 37.264 306.611 36.848C305.715 36.4 304.723 36.176 303.635 36.176C302.547 36.176 301.699 36.416 301.091 36.896C300.483 37.344 300.179 37.984 300.179 38.816C300.179 39.296 300.451 39.744 300.995 40.16C301.539 40.544 302.323 40.864 303.347 41.12L306.179 41.792C307.747 42.176 309.027 42.784 310.019 43.616C311.011 44.416 311.747 45.328 312.227 46.352C312.707 47.344 312.947 48.352 312.947 49.376C312.947 50.816 312.531 52.08 311.699 53.168C310.899 54.256 309.795 55.104 308.387 55.712C306.979 56.288 305.379 56.576 303.587 56.576Z" fill="#4C4C4C"/>
<defs>
<filter id="filter0_d_115_9516" x="0" y="0" width="84" height="84" filterUnits="userSpaceOnUse" color-interpolation-filters="sRGB">
<feFlood flood-opacity="0" result="BackgroundImageFix"/>
<feColorMatrix in="SourceAlpha" type="matrix" values="0 0 0 0 0 0 0 0 0 0 0 0 0 0 0 0 0 0 127 0" result="hardAlpha"/>
<feOffset dy="2"/>
<feGaussianBlur stdDeviation="5"/>
<feComposite in2="hardAlpha" operator="out"/>
<feColorMatrix type="matrix" values="0 0 0 0 0 0 0 0 0 0 0 0 0 0 0 0 0 0 0.05 0"/>
<feBlend mode="normal" in2="BackgroundImageFix" result="effect1_dropShadow_115_9516"/>
<feBlend mode="normal" in="SourceGraphic" in2="effect1_dropShadow_115_9516" result="shape"/>
</filter>
</defs>
</svg>
