<svg width="306" height="64" viewBox="0 0 306 64" fill="none" xmlns="http://www.w3.org/2000/svg">
<g clip-path="url(#clip0_127_11437)">
<g filter="url(#filter0_d_127_11437)">
<path d="M9.63672 0C9.61334 0.163358 9.59961 0.330177 9.59961 0.5C9.59961 2.43287 11.1668 3.99979 13.0996 4C15.0326 4 16.5996 2.433 16.5996 0.5C16.5996 0.330187 16.5868 0.16335 16.5635 0H22.2363C22.213 0.163341 22.2002 0.330196 22.2002 0.5C22.2002 2.433 23.7672 4 25.7002 4C27.6331 3.99989 29.2002 2.43293 29.2002 0.5C29.2002 0.330215 29.1874 0.163324 29.1641 0H34.8359C34.8126 0.163323 34.7998 0.330216 34.7998 0.5C34.7998 2.43293 36.3669 3.99989 38.2998 4C40.2328 4 41.7998 2.433 41.7998 0.5C41.7998 0.330196 41.787 0.163341 41.7637 0H47.4365C47.4132 0.16335 47.4004 0.330187 47.4004 0.5C47.4004 2.433 48.9674 4 50.9004 4C52.8332 3.99979 54.4004 2.43287 54.4004 0.5C54.4004 0.330177 54.3867 0.163358 54.3633 0H60.0361C60.0128 0.163332 60 0.330206 60 0.5C60 2.433 61.567 4 63.5 4C63.6698 4 63.8367 3.98723 64 3.96387V9.63574C62.304 9.87836 61.0002 11.3366 61 13.0996C61 14.8628 62.3039 16.3208 64 16.5635V22.2354C62.3038 22.478 61 23.937 61 25.7002C61.0001 27.4633 62.3039 28.9214 64 29.1641V34.835C62.3039 35.0775 61.0001 36.5366 61 38.2998C61 40.063 62.3039 41.521 64 41.7637V47.4355C62.3039 47.6782 61 49.1372 61 50.9004C61.0002 52.6634 62.3041 54.1206 64 54.3633V60.0352C62.9875 60.18 62.1152 60.7586 61.5762 61.5762C60.7586 62.1152 60.181 62.9876 60.0361 64H54.3633C54.1206 62.3041 52.6634 61.0002 50.9004 61C49.1372 61 47.6792 62.3039 47.4365 64H41.7637C41.521 62.3039 40.063 61 38.2998 61C36.5367 61.0001 35.0786 62.304 34.8359 64H29.1641C28.9214 62.3039 27.4633 61.0001 25.7002 61C23.937 61 22.479 62.3039 22.2363 64H16.5635C16.3208 62.3039 14.8628 61 13.0996 61C11.3366 61.0002 9.87939 62.3041 9.63672 64H3.96387C3.98723 63.8367 4 63.6698 4 63.5C4 61.567 2.433 60 0.5 60C0.330253 60 0.163289 60.0118 0 60.0352V54.3633C0.163358 54.3867 0.330177 54.4004 0.5 54.4004C2.43287 54.4004 3.99979 52.8332 4 50.9004C4 48.9674 2.433 47.4004 0.5 47.4004C0.330234 47.4004 0.163306 47.4122 0 47.4355V41.7637C0.163341 41.787 0.330196 41.7998 0.5 41.7998C2.433 41.7998 4 40.2328 4 38.2998C3.99989 36.3669 2.43293 34.7998 0.5 34.7998C0.330263 34.7998 0.16328 34.8116 0 34.835V29.1641C0.163324 29.1874 0.330215 29.2002 0.5 29.2002C2.43293 29.2002 3.99989 27.6331 4 25.7002C4 23.7672 2.433 22.2002 0.5 22.2002C0.330244 22.2002 0.163297 22.212 0 22.2354V16.5635C0.16335 16.5868 0.330187 16.5996 0.5 16.5996C2.433 16.5996 4 15.0326 4 13.0996C3.99979 11.1668 2.43287 9.59961 0.5 9.59961C0.330225 9.59961 0.163315 9.61238 0 9.63574V3.96387C0.163332 3.98723 0.330206 4 0.5 4C2.433 4 4 2.433 4 0.5C4 0.330206 3.98723 0.163332 3.96387 0H9.63672Z" fill="#EAD4E0"/>
</g>
<rect x="9" y="9" width="48" height="48" rx="2" fill="white"/>
<path d="M41 16C47.0751 16 52 20.9249 52 27C52 30.1665 50.66 33.0184 48.5186 35.0254L48.6504 35.1582L34.7812 49.1289C33.8085 50.1087 32.2306 50.1087 31.2578 49.1289L17.3887 35.1582L17.6484 34.8955C15.3994 32.8962 14 30.0987 14 27C14 20.9249 19.3726 16 26 16C28.9907 16 31.724 17.0052 33.8252 18.6641C35.7515 17.0046 38.258 16 41 16Z" fill="#F2C6DF"/>
<path d="M91.984 48V14.4H103.84C106.144 14.4 108.176 14.864 109.936 15.792C111.696 16.72 113.072 18.016 114.064 19.68C115.056 21.312 115.552 23.216 115.552 25.392C115.552 27.504 115.088 29.392 114.16 31.056C113.232 32.72 111.936 34.032 110.272 34.992C108.64 35.92 106.736 36.384 104.56 36.384H97.552V48H91.984ZM97.552 31.248H104.464C106.064 31.248 107.376 30.704 108.4 29.616C109.424 28.528 109.936 27.12 109.936 25.392C109.936 23.632 109.36 22.208 108.208 21.12C107.056 20.032 105.568 19.488 103.744 19.488H97.552V31.248ZM130.047 48.576C127.647 48.576 125.503 48.048 123.615 46.992C121.759 45.904 120.303 44.416 119.247 42.528C118.191 40.64 117.663 38.464 117.663 36C117.663 33.536 118.175 31.36 119.199 29.472C120.255 27.584 121.711 26.112 123.567 25.056C125.423 23.968 127.551 23.424 129.951 23.424C132.351 23.424 134.479 23.968 136.335 25.056C138.191 26.112 139.631 27.584 140.655 29.472C141.711 31.36 142.239 33.536 142.239 36C142.239 38.464 141.727 40.64 140.703 42.528C139.679 44.416 138.239 45.904 136.383 46.992C134.527 48.048 132.415 48.576 130.047 48.576ZM130.047 43.632C131.359 43.632 132.527 43.312 133.551 42.672C134.575 42 135.375 41.104 135.951 39.984C136.527 38.832 136.815 37.504 136.815 36C136.815 34.496 136.511 33.184 135.903 32.064C135.327 30.912 134.527 30.016 133.503 29.376C132.479 28.704 131.295 28.368 129.951 28.368C128.607 28.368 127.423 28.688 126.399 29.328C125.375 29.968 124.575 30.864 123.999 32.016C123.423 33.168 123.135 34.496 123.135 36C123.135 37.504 123.423 38.832 123.999 39.984C124.607 41.104 125.423 42 126.447 42.672C127.503 43.312 128.703 43.632 130.047 43.632ZM155.634 48.576C154.034 48.576 152.562 48.336 151.218 47.856C149.874 47.376 148.722 46.704 147.762 45.84C146.802 44.944 146.066 43.904 145.554 42.72L150.21 40.656C150.69 41.552 151.394 42.304 152.322 42.912C153.282 43.52 154.338 43.824 155.49 43.824C156.738 43.824 157.73 43.616 158.466 43.2C159.234 42.752 159.618 42.144 159.618 41.376C159.618 40.64 159.33 40.08 158.754 39.696C158.178 39.28 157.362 38.944 156.306 38.688L154.05 38.064C151.778 37.488 150.002 36.576 148.722 35.328C147.442 34.048 146.802 32.592 146.802 30.96C146.802 28.56 147.57 26.704 149.106 25.392C150.674 24.08 152.914 23.424 155.826 23.424C157.298 23.424 158.642 23.648 159.858 24.096C161.106 24.512 162.178 25.12 163.074 25.92C163.97 26.688 164.594 27.6 164.946 28.656L160.482 30.672C160.162 29.872 159.554 29.264 158.658 28.848C157.762 28.4 156.77 28.176 155.682 28.176C154.594 28.176 153.746 28.416 153.138 28.896C152.53 29.344 152.226 29.984 152.226 30.816C152.226 31.296 152.498 31.744 153.042 32.16C153.586 32.544 154.37 32.864 155.394 33.12L158.226 33.792C159.794 34.176 161.074 34.784 162.066 35.616C163.058 36.416 163.794 37.328 164.274 38.352C164.754 39.344 164.994 40.352 164.994 41.376C164.994 42.816 164.578 44.08 163.746 45.168C162.946 46.256 161.842 47.104 160.434 47.712C159.026 48.288 157.426 48.576 155.634 48.576ZM178.809 48.576C176.281 48.576 174.345 47.952 173.001 46.704C171.689 45.424 171.033 43.6 171.033 41.232V16.512H176.361V40.224C176.361 41.344 176.617 42.192 177.129 42.768C177.673 43.344 178.457 43.632 179.481 43.632C179.801 43.632 180.153 43.568 180.537 43.44C180.921 43.312 181.353 43.072 181.833 42.72L183.801 46.8C182.969 47.376 182.137 47.808 181.305 48.096C180.473 48.416 179.641 48.576 178.809 48.576ZM167.049 28.608V24H182.841V28.608H167.049ZM199.005 48.576C196.541 48.576 194.365 48.048 192.477 46.992C190.589 45.904 189.101 44.416 188.013 42.528C186.957 40.64 186.429 38.464 186.429 36C186.429 33.536 186.957 31.36 188.013 29.472C189.101 27.584 190.573 26.112 192.429 25.056C194.317 23.968 196.477 23.424 198.909 23.424C201.277 23.424 203.421 24 205.341 25.152C207.261 26.272 208.685 27.888 209.613 30L204.621 31.92C204.109 30.864 203.325 30.016 202.269 29.376C201.213 28.736 200.013 28.416 198.669 28.416C197.357 28.416 196.189 28.752 195.165 29.424C194.141 30.064 193.341 30.96 192.765 32.112C192.189 33.232 191.901 34.528 191.901 36C191.901 37.472 192.189 38.784 192.765 39.936C193.373 41.056 194.189 41.952 195.213 42.624C196.269 43.264 197.453 43.584 198.765 43.584C200.109 43.584 201.309 43.248 202.365 42.576C203.421 41.872 204.205 40.928 204.717 39.744L209.709 41.664C208.781 43.84 207.357 45.536 205.437 46.752C203.549 47.968 201.405 48.576 199.005 48.576ZM228.522 48L228.282 43.488V35.664C228.282 34.032 228.106 32.672 227.754 31.584C227.434 30.464 226.89 29.616 226.122 29.04C225.386 28.432 224.394 28.128 223.146 28.128C221.994 28.128 220.986 28.368 220.122 28.848C219.258 29.328 218.522 30.08 217.914 31.104L213.21 29.376C213.722 28.32 214.394 27.344 215.226 26.448C216.09 25.52 217.162 24.784 218.442 24.24C219.754 23.696 221.322 23.424 223.146 23.424C225.482 23.424 227.434 23.888 229.002 24.816C230.57 25.712 231.722 27.008 232.458 28.704C233.226 30.4 233.61 32.448 233.61 34.848L233.466 48H228.522ZM221.61 48.576C218.73 48.576 216.49 47.936 214.89 46.656C213.322 45.376 212.538 43.568 212.538 41.232C212.538 38.736 213.37 36.832 215.034 35.52C216.73 34.208 219.082 33.552 222.09 33.552H228.522V37.68H223.818C221.674 37.68 220.17 37.984 219.306 38.592C218.442 39.168 218.01 40 218.01 41.088C218.01 42.016 218.378 42.752 219.114 43.296C219.882 43.808 220.938 44.064 222.282 44.064C223.498 44.064 224.554 43.792 225.45 43.248C226.346 42.704 227.034 41.984 227.514 41.088C228.026 40.192 228.282 39.184 228.282 38.064H229.866C229.866 41.328 229.21 43.904 227.898 45.792C226.586 47.648 224.49 48.576 221.61 48.576ZM242.606 35.232C242.606 32.64 243.102 30.512 244.094 28.848C245.086 27.184 246.366 25.952 247.934 25.152C249.534 24.32 251.198 23.904 252.926 23.904V29.04C251.454 29.04 250.062 29.248 248.75 29.664C247.47 30.048 246.43 30.688 245.63 31.584C244.83 32.48 244.43 33.664 244.43 35.136L242.606 35.232ZM239.054 48V24H244.43V48H239.054ZM273.82 48L273.58 43.536V14.4H278.908V48H273.82ZM265.996 48.576C263.82 48.576 261.916 48.064 260.284 47.04C258.684 45.984 257.42 44.512 256.492 42.624C255.596 40.736 255.148 38.528 255.148 36C255.148 33.44 255.596 31.232 256.492 29.376C257.42 27.488 258.684 26.032 260.284 25.008C261.916 23.952 263.82 23.424 265.996 23.424C268.012 23.424 269.74 23.952 271.18 25.008C272.652 26.032 273.772 27.488 274.54 29.376C275.308 31.232 275.692 33.44 275.692 36C275.692 38.528 275.308 40.736 274.54 42.624C273.772 44.512 272.652 45.984 271.18 47.04C269.74 48.064 268.012 48.576 265.996 48.576ZM267.34 43.68C268.556 43.68 269.628 43.36 270.556 42.72C271.516 42.048 272.252 41.136 272.764 39.984C273.308 38.832 273.58 37.504 273.58 36C273.58 34.496 273.308 33.168 272.764 32.016C272.252 30.864 271.516 29.968 270.556 29.328C269.628 28.688 268.54 28.368 267.292 28.368C266.012 28.368 264.876 28.688 263.884 29.328C262.892 29.968 262.108 30.864 261.532 32.016C260.988 33.168 260.7 34.496 260.668 36C260.7 37.504 260.988 38.832 261.532 39.984C262.108 41.136 262.892 42.048 263.884 42.72C264.908 43.36 266.06 43.68 267.34 43.68ZM293.587 48.576C291.987 48.576 290.515 48.336 289.171 47.856C287.827 47.376 286.675 46.704 285.715 45.84C284.755 44.944 284.019 43.904 283.507 42.72L288.163 40.656C288.643 41.552 289.347 42.304 290.275 42.912C291.235 43.52 292.291 43.824 293.443 43.824C294.691 43.824 295.683 43.616 296.419 43.2C297.187 42.752 297.571 42.144 297.571 41.376C297.571 40.64 297.283 40.08 296.707 39.696C296.131 39.28 295.315 38.944 294.259 38.688L292.003 38.064C289.731 37.488 287.955 36.576 286.675 35.328C285.395 34.048 284.755 32.592 284.755 30.96C284.755 28.56 285.523 26.704 287.059 25.392C288.627 24.08 290.867 23.424 293.779 23.424C295.251 23.424 296.595 23.648 297.811 24.096C299.059 24.512 300.131 25.12 301.027 25.92C301.923 26.688 302.547 27.6 302.899 28.656L298.435 30.672C298.115 29.872 297.507 29.264 296.611 28.848C295.715 28.4 294.723 28.176 293.635 28.176C292.547 28.176 291.699 28.416 291.091 28.896C290.483 29.344 290.179 29.984 290.179 30.816C290.179 31.296 290.451 31.744 290.995 32.16C291.539 32.544 292.323 32.864 293.347 33.12L296.179 33.792C297.747 34.176 299.027 34.784 300.019 35.616C301.011 36.416 301.747 37.328 302.227 38.352C302.707 39.344 302.947 40.352 302.947 41.376C302.947 42.816 302.531 44.08 301.699 45.168C300.899 46.256 299.795 47.104 298.387 47.712C296.979 48.288 295.379 48.576 293.587 48.576Z" fill="#4C4C4C"/>
</g>
<defs>
<filter id="filter0_d_127_11437" x="-10" y="-8" width="84" height="84" filterUnits="userSpaceOnUse" color-interpolation-filters="sRGB">
<feFlood flood-opacity="0" result="BackgroundImageFix"/>
<feColorMatrix in="SourceAlpha" type="matrix" values="0 0 0 0 0 0 0 0 0 0 0 0 0 0 0 0 0 0 127 0" result="hardAlpha"/>
<feOffset dy="2"/>
<feGaussianBlur stdDeviation="5"/>
<feComposite in2="hardAlpha" operator="out"/>
<feColorMatrix type="matrix" values="0 0 0 0 0 0 0 0 0 0 0 0 0 0 0 0 0 0 0.05 0"/>
<feBlend mode="normal" in2="BackgroundImageFix" result="effect1_dropShadow_127_11437"/>
<feBlend mode="normal" in="SourceGraphic" in2="effect1_dropShadow_127_11437" result="shape"/>
</filter>
<clipPath id="clip0_127_11437">
<rect width="306" height="64" fill="white"/>
</clipPath>
</defs>
</svg>
