<svg width="256" height="256" viewBox="0 0 256 256" fill="none" xmlns="http://www.w3.org/2000/svg">
<g clip-path="url(#clip0_127_11439)">
<g filter="url(#filter0_d_127_11439)">
<path d="M38.543 0C38.4495 0.653259 38.4004 1.3209 38.4004 2C38.4004 9.73199 44.6684 16 52.4004 16C60.1322 15.9998 66.4004 9.73186 66.4004 2C66.4004 1.32089 66.3503 0.653268 66.2568 0H88.9424C88.8489 0.653233 88.7998 1.32093 88.7998 2C88.7998 9.73192 95.0679 15.9999 102.8 16C110.532 16 116.8 9.73199 116.8 2C116.8 1.32091 116.751 0.653251 116.657 0H139.343C139.249 0.65325 139.2 1.32091 139.2 2C139.2 9.73199 145.468 16 153.2 16C160.932 15.9999 167.2 9.73193 167.2 2C167.2 1.32093 167.151 0.653234 167.058 0H189.743C189.65 0.653268 189.6 1.32089 189.6 2C189.6 9.73185 195.868 15.9998 203.6 16C211.332 16 217.6 9.73199 217.6 2C217.6 1.3209 217.55 0.653259 217.457 0H240.143C240.049 0.653242 240 1.32092 240 2C240 9.73199 246.268 16 254 16C254.679 16 255.347 15.9499 256 15.8564V38.543C249.215 39.5135 244 45.3475 244 52.4004C244 59.453 249.216 65.2853 256 66.2559V88.9424C249.216 89.9129 244 95.747 244 102.8C244 109.853 249.216 115.686 256 116.656V139.343C249.215 140.313 244 146.147 244 153.2C244 160.253 249.216 166.086 256 167.057V189.743C249.216 190.714 244 196.547 244 203.6C244 210.652 249.216 216.485 256 217.456V240.143C251.95 240.722 248.46 243.034 246.304 246.304C243.034 248.46 240.722 251.95 240.143 256H217.457C216.486 249.215 210.652 244 203.6 244C196.547 244 190.714 249.216 189.743 256H167.058C166.087 249.216 160.253 244 153.2 244C146.147 244 140.313 249.215 139.343 256H116.657C115.687 249.215 109.853 244 102.8 244C95.747 244 89.9129 249.216 88.9424 256H66.2568C65.2863 249.216 59.4531 244 52.4004 244C45.3475 244 39.5135 249.215 38.543 256H15.8574C15.9509 255.347 16 254.679 16 254C16 246.268 9.73199 240 2 240C1.32092 240 0.653242 240.049 0 240.143V217.456C0.653303 217.55 1.32085 217.6 2 217.6C9.73199 217.6 16 211.332 16 203.6C15.9998 195.868 9.73185 189.6 2 189.6C1.32089 189.6 0.653268 189.65 0 189.743V167.057C0.653277 167.15 1.32088 167.2 2 167.2C9.73193 167.2 15.9999 160.932 16 153.2C16 145.468 9.73199 139.2 2 139.2C1.32091 139.2 0.65325 139.249 0 139.343V116.656C0.653294 116.75 1.32086 116.8 2 116.8C9.73199 116.8 16 110.532 16 102.8C15.9999 95.0679 9.73192 88.7998 2 88.7998C1.32093 88.7998 0.653233 88.8489 0 88.9424V66.2559C0.653312 66.3493 1.32084 66.4004 2 66.4004C9.73186 66.4004 15.9998 60.1322 16 52.4004C16 44.6684 9.73199 38.4004 2 38.4004C1.3209 38.4004 0.653259 38.4495 0 38.543V15.8564C0.653285 15.9499 1.32087 16 2 16C9.73199 16 16 9.73199 16 2C16 1.32092 15.9509 0.653242 15.8574 0H38.543Z" fill="#EAD4E0"/>
</g>
<rect x="36" y="36" width="192" height="192" rx="8" fill="white"/>
<path d="M163.79 64C188.207 64.0002 208.001 83.938 208.001 108.532C208.001 121.099 202.831 132.448 194.519 140.545L194.606 140.634L139.128 196.516C135.237 200.435 128.927 200.435 125.036 196.516L69.5576 140.634L69.5645 140.626C61.2038 132.524 56.0001 121.141 56 108.532C56 83.9379 75.7946 64 100.212 64C112.691 64.0001 123.961 69.21 132 77.5859C140.039 69.2096 151.31 64 163.79 64Z" fill="#F2C6DF"/>
</g>
<defs>
<filter id="filter0_d_127_11439" x="-40" y="-32" width="336" height="336" filterUnits="userSpaceOnUse" color-interpolation-filters="sRGB">
<feFlood flood-opacity="0" result="BackgroundImageFix"/>
<feColorMatrix in="SourceAlpha" type="matrix" values="0 0 0 0 0 0 0 0 0 0 0 0 0 0 0 0 0 0 127 0" result="hardAlpha"/>
<feOffset dy="8"/>
<feGaussianBlur stdDeviation="20"/>
<feComposite in2="hardAlpha" operator="out"/>
<feColorMatrix type="matrix" values="0 0 0 0 0 0 0 0 0 0 0 0 0 0 0 0 0 0 0.05 0"/>
<feBlend mode="normal" in2="BackgroundImageFix" result="effect1_dropShadow_127_11439"/>
<feBlend mode="normal" in="SourceGraphic" in2="effect1_dropShadow_127_11439" result="shape"/>
</filter>
<clipPath id="clip0_127_11439">
<rect width="256" height="256" fill="white"/>
</clipPath>
</defs>
</svg>
