<svg width="64" height="64" viewBox="0 0 64 64" fill="none" xmlns="http://www.w3.org/2000/svg">
<path d="M51.877 20.7598C53.0226 19.6146 53.6662 18.0612 53.6664 16.4413C53.6666 14.8215 53.0234 13.268 51.8781 12.1224C50.7329 10.9769 49.1795 10.3332 47.5596 10.333C45.9398 10.3328 44.3862 10.9761 43.2407 12.1213L14.3244 41.0442C13.8213 41.5458 13.4493 42.1633 13.241 42.8425L10.3789 52.2718C10.3229 52.4592 10.3186 52.6583 10.3666 52.8478C10.4146 53.0374 10.513 53.2105 10.6514 53.3487C10.7898 53.4869 10.963 53.585 11.1527 53.6327C11.3424 53.6803 11.5414 53.6758 11.7287 53.6195L21.1602 50.7595C21.8387 50.5531 22.4562 50.1834 22.9585 49.6827L51.877 20.7598Z" stroke="#A9A9A9" stroke-width="4.33333" stroke-linecap="round" stroke-linejoin="round"/>
</svg>
