<svg width="64" height="64" viewBox="0 0 64 64" fill="none" xmlns="http://www.w3.org/2000/svg">
<path d="M56.4641 18.166C57.874 16.7565 58.6662 14.8446 58.6665 12.851C58.6667 10.8573 57.875 8.94525 56.4654 7.53536C55.0559 6.12547 53.144 5.33326 51.1504 5.33301C49.1568 5.33276 47.2447 6.12449 45.8348 7.53402L10.2454 43.1314C9.6263 43.7487 9.16841 44.5088 8.91211 45.3447L5.38944 56.95C5.32052 57.1806 5.31532 57.4256 5.37438 57.659C5.43344 57.8923 5.55456 58.1053 5.7249 58.2754C5.89524 58.4454 6.10843 58.5662 6.34187 58.6249C6.5753 58.6836 6.82027 58.678 7.05078 58.6087L18.6588 55.0887C19.4939 54.8347 20.2539 54.3796 20.8721 53.7634L56.4641 18.166Z" stroke="#A9A9A9" stroke-width="5.33333" stroke-linecap="round" stroke-linejoin="round"/>
</svg>
