<svg width="64" height="64" viewBox="0 0 64 64" fill="none" xmlns="http://www.w3.org/2000/svg">
<path d="M28.6214 13.5357C34.8331 12.7954 41.1163 14.1085 46.5117 17.2745C51.907 20.4404 56.118 25.2852 58.5014 31.069C58.7236 31.6677 58.7236 32.3263 58.5014 32.925C57.5214 35.301 56.2262 37.5344 54.6507 39.565M37.5574 37.7543C36.0486 39.2116 34.0277 40.018 31.9302 39.9997C29.8326 39.9815 27.8261 39.1402 26.3428 37.6569C24.8596 36.1736 24.0182 34.1671 24 32.0695C23.9818 29.972 24.7881 27.9512 26.2454 26.4423M46.6107 46.6637C43.0733 48.7591 39.1266 50.0691 35.0383 50.5047C30.9501 50.9404 26.8159 50.4916 22.9164 49.1887C19.0169 47.8858 15.4432 45.7594 12.4379 42.9537C9.43266 40.148 7.06605 36.7286 5.49871 32.9277C5.27647 32.329 5.27647 31.6704 5.49871 31.0717C7.86307 25.338 12.0232 20.5257 17.3547 17.357M5.33338 5.33301L58.6667 58.6663" stroke="#A9A9A9" stroke-width="3.55556" stroke-linecap="round" stroke-linejoin="round"/>
</svg>
