<svg width="64" height="64" viewBox="0 0 64 64" fill="none" xmlns="http://www.w3.org/2000/svg">
<path d="M5.49871 32.928C5.27647 32.3293 5.27647 31.6707 5.49871 31.072C7.66325 25.8236 11.3374 21.3361 16.0554 18.1784C20.7734 15.0207 26.3228 13.335 32 13.335C37.6773 13.335 43.2266 15.0207 47.9447 18.1784C52.6627 21.3361 56.3368 25.8236 58.5014 31.072C58.7236 31.6707 58.7236 32.3293 58.5014 32.928C56.3368 38.1764 52.6627 42.6639 47.9447 45.8216C43.2266 48.9793 37.6773 50.665 32 50.665C26.3228 50.665 20.7734 48.9793 16.0554 45.8216C11.3374 42.6639 7.66325 38.1764 5.49871 32.928Z" stroke="#A9A9A9" stroke-width="3.55556" stroke-linecap="round" stroke-linejoin="round"/>
<path d="M32 40C36.4183 40 40 36.4183 40 32C40 27.5817 36.4183 24 32 24C27.5818 24 24 27.5817 24 32C24 36.4183 27.5818 40 32 40Z" stroke="#A9A9A9" stroke-width="3.55556" stroke-linecap="round" stroke-linejoin="round"/>
</svg>
