<svg width="241" height="240" viewBox="0 0 241 240" fill="none" xmlns="http://www.w3.org/2000/svg">
<path d="M113.674 37.7447L122.837 68.8142C124.052 72.9343 126.854 76.4029 130.627 78.4571C134.399 80.5112 138.833 80.9825 142.953 79.7674L174.023 70.6044M121.047 120L134.791 166.604M121.047 120L151.221 136.43M121.047 120L104.617 150.175M121.441 35.4539L51.5348 56.0708C47.4147 57.2859 43.9461 60.0879 41.8919 63.8605C39.8378 67.633 39.3664 72.067 40.5815 76.1871L77.2338 200.465C78.4489 204.585 81.2509 208.054 85.0235 210.108C88.796 212.162 93.23 212.634 97.3501 211.419L190.559 183.929C194.679 182.714 198.147 179.912 200.202 176.14C202.256 172.367 202.727 167.933 201.512 163.813L171.732 62.837L121.441 35.4539Z" stroke="white" stroke-width="21.595" stroke-linecap="round" stroke-linejoin="round"/>
</svg>
